<svg width="1200" height="720" viewBox="0 0 1200 720" fill="none" xmlns="http://www.w3.org/2000/svg">
<rect width="1200" height="720" rx="32" fill="#F7FBFF"/>
<rect x="32" y="28" width="1136" height="660" rx="32" fill="white" stroke="#D8E3F4" stroke-width="2"/>
<text x="64" y="72" fill="#0F172A" font-family="Segoe UI, Arial, sans-serif" font-size="34" font-weight="800">Study Planner Walkthrough</text>
<text x="64" y="110" fill="#475569" font-family="Segoe UI, Arial, sans-serif" font-size="18">Animated summary of one medium-task rollout</text>

<rect x="64" y="142" width="302" height="132" rx="28" fill="white" stroke="#D8E3F4" stroke-width="2"/>
<rect x="390" y="142" width="302" height="132" rx="28" fill="white" stroke="#D8E3F4" stroke-width="2"/>
<rect x="716" y="142" width="420" height="132" rx="28" fill="white" stroke="#D8E3F4" stroke-width="2"/>

<text x="88" y="176" fill="#64748B" font-family="Segoe UI, Arial, sans-serif" font-size="16" font-weight="700">CURRENT STEP</text>
<text x="414" y="176" fill="#64748B" font-family="Segoe UI, Arial, sans-serif" font-size="16" font-weight="700">CUMULATIVE REWARD</text>
<text x="740" y="176" fill="#64748B" font-family="Segoe UI, Arial, sans-serif" font-size="16" font-weight="700">CURRENT ACTION</text>
<text id="step0" x="96" y="224" fill="#0F172A" font-family="Segoe UI, Arial, sans-serif" font-size="34" font-weight="800" display="inline">1<set attributeName="display" to="inline" begin="0.0s" dur="0.88s" /></text><text id="step1" x="96" y="224" fill="#0F172A" font-family="Segoe UI, Arial, sans-serif" font-size="34" font-weight="800" display="none">3<set attributeName="display" to="inline" begin="0.9s" dur="0.88s" /></text><text id="step2" x="96" y="224" fill="#0F172A" font-family="Segoe UI, Arial, sans-serif" font-size="34" font-weight="800" display="none">6<set attributeName="display" to="inline" begin="1.8s" dur="0.88s" /></text><text id="step3" x="96" y="224" fill="#0F172A" font-family="Segoe UI, Arial, sans-serif" font-size="34" font-weight="800" display="none">9<set attributeName="display" to="inline" begin="2.7s" dur="0.88s" /></text><text id="step4" x="96" y="224" fill="#0F172A" font-family="Segoe UI, Arial, sans-serif" font-size="34" font-weight="800" display="none">12<set attributeName="display" to="inline" begin="3.6s" dur="0.88s" /></text><text id="step5" x="96" y="224" fill="#0F172A" font-family="Segoe UI, Arial, sans-serif" font-size="34" font-weight="800" display="none">15<set attributeName="display" to="inline" begin="4.5s" dur="0.88s" /></text><text id="step6" x="96" y="224" fill="#0F172A" font-family="Segoe UI, Arial, sans-serif" font-size="34" font-weight="800" display="none">19<set attributeName="display" to="inline" begin="5.4s" dur="0.88s" /></text><text id="step7" x="96" y="224" fill="#0F172A" font-family="Segoe UI, Arial, sans-serif" font-size="34" font-weight="800" display="none">23<set attributeName="display" to="inline" begin="6.3s" dur="0.88s" /></text><text id="step8" x="96" y="224" fill="#0F172A" font-family="Segoe UI, Arial, sans-serif" font-size="34" font-weight="800" display="none">27<set attributeName="display" to="inline" begin="7.2s" dur="0.88s" /></text><text id="step9" x="96" y="224" fill="#0F172A" font-family="Segoe UI, Arial, sans-serif" font-size="34" font-weight="800" display="none">30<set attributeName="display" to="inline" begin="8.1s" dur="0.88s" /></text>
<text id="reward0" x="402" y="224" fill="#0F172A" font-family="Segoe UI, Arial, sans-serif" font-size="34" font-weight="800" display="inline">0.7999<set attributeName="display" to="inline" begin="0.0s" dur="0.88s" /></text><text id="reward1" x="402" y="224" fill="#0F172A" font-family="Segoe UI, Arial, sans-serif" font-size="34" font-weight="800" display="none">3.6272<set attributeName="display" to="inline" begin="0.9s" dur="0.88s" /></text><text id="reward2" x="402" y="224" fill="#0F172A" font-family="Segoe UI, Arial, sans-serif" font-size="34" font-weight="800" display="none">6.3502<set attributeName="display" to="inline" begin="1.8s" dur="0.88s" /></text><text id="reward3" x="402" y="224" fill="#0F172A" font-family="Segoe UI, Arial, sans-serif" font-size="34" font-weight="800" display="none">7.3158<set attributeName="display" to="inline" begin="2.7s" dur="0.88s" /></text><text id="reward4" x="402" y="224" fill="#0F172A" font-family="Segoe UI, Arial, sans-serif" font-size="34" font-weight="800" display="none">7.5382<set attributeName="display" to="inline" begin="3.6s" dur="0.88s" /></text><text id="reward5" x="402" y="224" fill="#0F172A" font-family="Segoe UI, Arial, sans-serif" font-size="34" font-weight="800" display="none">8.1506<set attributeName="display" to="inline" begin="4.5s" dur="0.88s" /></text><text id="reward6" x="402" y="224" fill="#0F172A" font-family="Segoe UI, Arial, sans-serif" font-size="34" font-weight="800" display="none">10.033<set attributeName="display" to="inline" begin="5.4s" dur="0.88s" /></text><text id="reward7" x="402" y="224" fill="#0F172A" font-family="Segoe UI, Arial, sans-serif" font-size="34" font-weight="800" display="none">12.2387<set attributeName="display" to="inline" begin="6.3s" dur="0.88s" /></text><text id="reward8" x="402" y="224" fill="#0F172A" font-family="Segoe UI, Arial, sans-serif" font-size="34" font-weight="800" display="none">13.8576<set attributeName="display" to="inline" begin="7.2s" dur="0.88s" /></text><text id="reward9" x="402" y="224" fill="#0F172A" font-family="Segoe UI, Arial, sans-serif" font-size="34" font-weight="800" display="none">13.685<set attributeName="display" to="inline" begin="8.1s" dur="0.88s" /></text>
<text id="action0" x="742" y="224" fill="#0F172A" font-family="Segoe UI, Arial, sans-serif" font-size="30" font-weight="800" display="inline">study:math<set attributeName="display" to="inline" begin="0.0s" dur="0.88s" /></text><text id="action1" x="742" y="224" fill="#0F172A" font-family="Segoe UI, Arial, sans-serif" font-size="30" font-weight="800" display="none">study:physics<set attributeName="display" to="inline" begin="0.9s" dur="0.88s" /></text><text id="action2" x="742" y="224" fill="#0F172A" font-family="Segoe UI, Arial, sans-serif" font-size="30" font-weight="800" display="none">study:physics<set attributeName="display" to="inline" begin="1.8s" dur="0.88s" /></text><text id="action3" x="742" y="224" fill="#0F172A" font-family="Segoe UI, Arial, sans-serif" font-size="30" font-weight="800" display="none">rest:all<set attributeName="display" to="inline" begin="2.7s" dur="0.88s" /></text><text id="action4" x="742" y="224" fill="#0F172A" font-family="Segoe UI, Arial, sans-serif" font-size="30" font-weight="800" display="none">rest:all<set attributeName="display" to="inline" begin="3.6s" dur="0.88s" /></text><text id="action5" x="742" y="224" fill="#0F172A" font-family="Segoe UI, Arial, sans-serif" font-size="30" font-weight="800" display="none">rest:all<set attributeName="display" to="inline" begin="4.5s" dur="0.88s" /></text><text id="action6" x="742" y="224" fill="#0F172A" font-family="Segoe UI, Arial, sans-serif" font-size="30" font-weight="800" display="none">study:math<set attributeName="display" to="inline" begin="5.4s" dur="0.88s" /></text><text id="action7" x="742" y="224" fill="#0F172A" font-family="Segoe UI, Arial, sans-serif" font-size="30" font-weight="800" display="none">rest:all<set attributeName="display" to="inline" begin="6.3s" dur="0.88s" /></text><text id="action8" x="742" y="224" fill="#0F172A" font-family="Segoe UI, Arial, sans-serif" font-size="30" font-weight="800" display="none">study:chemistry<set attributeName="display" to="inline" begin="7.2s" dur="0.88s" /></text><text id="action9" x="742" y="224" fill="#0F172A" font-family="Segoe UI, Arial, sans-serif" font-size="30" font-weight="800" display="none">rest:all<set attributeName="display" to="inline" begin="8.1s" dur="0.88s" /></text>

<rect x="64" y="316" width="1072" height="334" rx="28" fill="white" stroke="#D8E3F4" stroke-width="2"/>
<text x="88" y="352" fill="#0F172A" font-family="Segoe UI, Arial, sans-serif" font-size="18" font-weight="700">Energy and mastery over time</text>
<rect x="92" y="380" width="1016" height="240" rx="18" fill="#F8FBFF" stroke="#E2EAF7"/>
<text x="950" y="410" fill="#0F766E" font-family="Segoe UI, Arial, sans-serif" font-size="15" font-weight="700">energy</text>
<text x="950" y="434" fill="#1D4ED8" font-family="Segoe UI, Arial, sans-serif" font-size="15" font-weight="700">avg mastery</text>
<polyline points="104.0,490.8" fill="none" stroke="#0F766E" stroke-width="5" display="inline"><set attributeName="display" to="inline" begin="0.0s" dur="0.88s" /></polyline><polyline points="104.0,490.8 590.0,517.2 1076.0,520.5" fill="none" stroke="#0F766E" stroke-width="5" display="none"><set attributeName="display" to="inline" begin="0.9s" dur="0.88s" /></polyline><polyline points="104.0,490.8 298.4,517.2 492.8,520.5 687.2,573.3 881.6,511.7 1076.0,513.6" fill="none" stroke="#0F766E" stroke-width="5" display="none"><set attributeName="display" to="inline" begin="1.8s" dur="0.88s" /></polyline><polyline points="104.0,490.8 225.5,517.2 347.0,520.5 468.5,573.3 590.0,511.7 711.5,513.6 833.0,566.4 954.5,614.0 1076.0,500.2" fill="none" stroke="#0F766E" stroke-width="5" display="none"><set attributeName="display" to="inline" begin="2.7s" dur="0.88s" /></polyline><polyline points="104.0,490.8 192.4,517.2 280.7,520.5 369.1,573.3 457.5,511.7 545.8,513.6 634.2,566.4 722.5,614.0 810.9,500.2 899.3,553.0 987.6,605.8 1076.0,490.8" fill="none" stroke="#0F766E" stroke-width="5" display="none"><set attributeName="display" to="inline" begin="3.6s" dur="0.88s" /></polyline><polyline points="104.0,490.8 173.4,517.2 242.9,520.5 312.3,573.3 381.7,511.7 451.1,513.6 520.6,566.4 590.0,614.0 659.4,500.2 728.9,553.0 798.3,605.8 867.7,490.8 937.1,543.6 1006.6,596.4 1076.0,479.7" fill="none" stroke="#0F766E" stroke-width="5" display="none"><set attributeName="display" to="inline" begin="4.5s" dur="0.88s" /></polyline><polyline points="104.0,490.8 158.0,517.2 212.0,520.5 266.0,573.3 320.0,511.7 374.0,513.6 428.0,566.4 482.0,614.0 536.0,500.2 590.0,553.0 644.0,605.8 698.0,490.8 752.0,543.6 806.0,596.4 860.0,479.7 914.0,532.5 968.0,585.3 1022.0,467.1 1076.0,519.9" fill="none" stroke="#0F766E" stroke-width="5" display="none"><set attributeName="display" to="inline" begin="5.4s" dur="0.88s" /></polyline><polyline points="104.0,490.8 148.2,517.2 192.4,520.5 236.5,573.3 280.7,511.7 324.9,513.6 369.1,566.4 413.3,614.0 457.5,500.2 501.6,553.0 545.8,605.8 590.0,490.8 634.2,543.6 678.4,596.4 722.5,479.7 766.7,532.5 810.9,585.3 855.1,467.1 899.3,519.9 943.5,546.3 987.6,540.9 1031.8,593.7 1076.0,532.1" fill="none" stroke="#0F766E" stroke-width="5" display="none"><set attributeName="display" to="inline" begin="6.3s" dur="0.88s" /></polyline><polyline points="104.0,490.8 141.4,517.2 178.8,520.5 216.2,573.3 253.5,511.7 290.9,513.6 328.3,566.4 365.7,614.0 403.1,500.2 440.5,553.0 477.8,605.8 515.2,490.8 552.6,543.6 590.0,596.4 627.4,479.7 664.8,532.5 702.2,585.3 739.5,467.1 776.9,519.9 814.3,546.3 851.7,540.9 889.1,593.7 926.5,532.1 963.8,526.3 1001.2,579.1 1038.6,517.5 1076.0,510.8" fill="none" stroke="#0F766E" stroke-width="5" display="none"><set attributeName="display" to="inline" begin="7.2s" dur="0.88s" /></polyline><polyline points="104.0,490.8 137.5,517.2 171.0,520.5 204.6,573.3 238.1,511.7 271.6,513.6 305.1,566.4 338.6,614.0 372.1,500.2 405.7,553.0 439.2,605.8 472.7,490.8 506.2,543.6 539.7,596.4 573.2,479.7 606.8,532.5 640.3,585.3 673.8,467.1 707.3,519.9 740.8,546.3 774.3,540.9 807.9,593.7 841.4,532.1 874.9,526.3 908.4,579.1 941.9,517.5 975.4,510.8 1009.0,563.6 1042.5,614.0 1076.0,492.6" fill="none" stroke="#0F766E" stroke-width="5" display="none"><set attributeName="display" to="inline" begin="8.1s" dur="0.88s" /></polyline>
<polyline points="104.0,566.1" fill="none" stroke="#1D4ED8" stroke-width="5" display="inline"><set attributeName="display" to="inline" begin="0.0s" dur="0.88s" /></polyline><polyline points="104.0,566.1 590.0,559.9 1076.0,552.7" fill="none" stroke="#1D4ED8" stroke-width="5" display="none"><set attributeName="display" to="inline" begin="0.9s" dur="0.88s" /></polyline><polyline points="104.0,566.1 298.4,559.9 492.8,552.7 687.2,544.6 881.6,544.6 1076.0,537.9" fill="none" stroke="#1D4ED8" stroke-width="5" display="none"><set attributeName="display" to="inline" begin="1.8s" dur="0.88s" /></polyline><polyline points="104.0,566.1 225.5,559.9 347.0,552.7 468.5,544.6 590.0,544.6 711.5,537.9 833.0,530.7 954.5,523.4 1076.0,523.4" fill="none" stroke="#1D4ED8" stroke-width="5" display="none"><set attributeName="display" to="inline" begin="2.7s" dur="0.88s" /></polyline><polyline points="104.0,566.1 192.4,559.9 280.7,552.7 369.1,544.6 457.5,544.6 545.8,537.9 634.2,530.7 722.5,523.4 810.9,523.4 899.3,514.6 987.6,508.5 1076.0,508.5" fill="none" stroke="#1D4ED8" stroke-width="5" display="none"><set attributeName="display" to="inline" begin="3.6s" dur="0.88s" /></polyline><polyline points="104.0,566.1 173.4,559.9 242.9,552.7 312.3,544.6 381.7,544.6 451.1,537.9 520.6,530.7 590.0,523.4 659.4,523.4 728.9,514.6 798.3,508.5 867.7,508.5 937.1,499.2 1006.6,490.7 1076.0,490.7" fill="none" stroke="#1D4ED8" stroke-width="5" display="none"><set attributeName="display" to="inline" begin="4.5s" dur="0.88s" /></polyline><polyline points="104.0,566.1 158.0,559.9 212.0,552.7 266.0,544.6 320.0,544.6 374.0,537.9 428.0,530.7 482.0,523.4 536.0,523.4 590.0,514.6 644.0,508.5 698.0,508.5 752.0,499.2 806.0,490.7 860.0,490.7 914.0,483.1 968.0,474.3 1022.0,474.3 1076.0,467.4" fill="none" stroke="#1D4ED8" stroke-width="5" display="none"><set attributeName="display" to="inline" begin="5.4s" dur="0.88s" /></polyline><polyline points="104.0,566.1 148.2,559.9 192.4,552.7 236.5,544.6 280.7,544.6 324.9,537.9 369.1,530.7 413.3,523.4 457.5,523.4 501.6,514.6 545.8,508.5 590.0,508.5 634.2,499.2 678.4,490.7 722.5,490.7 766.7,483.1 810.9,474.3 855.1,474.3 899.3,467.4 943.5,459.8 987.6,456.6 1031.8,454.1 1076.0,454.1" fill="none" stroke="#1D4ED8" stroke-width="5" display="none"><set attributeName="display" to="inline" begin="6.3s" dur="0.88s" /></polyline><polyline points="104.0,566.1 141.4,559.9 178.8,552.7 216.2,544.6 253.5,544.6 290.9,537.9 328.3,530.7 365.7,523.4 403.1,523.4 440.5,514.6 477.8,508.5 515.2,508.5 552.6,499.2 590.0,490.7 627.4,490.7 664.8,483.1 702.2,474.3 739.5,474.3 776.9,467.4 814.3,459.8 851.7,456.6 889.1,454.1 926.5,454.1 963.8,451.3 1001.2,446.2 1038.6,446.2 1076.0,441.6" fill="none" stroke="#1D4ED8" stroke-width="5" display="none"><set attributeName="display" to="inline" begin="7.2s" dur="0.88s" /></polyline><polyline points="104.0,566.1 137.5,559.9 171.0,552.7 204.6,544.6 238.1,544.6 271.6,537.9 305.1,530.7 338.6,523.4 372.1,523.4 405.7,514.6 439.2,508.5 472.7,508.5 506.2,499.2 539.7,490.7 573.2,490.7 606.8,483.1 640.3,474.3 673.8,474.3 707.3,467.4 740.8,459.8 774.3,456.6 807.9,454.1 841.4,454.1 874.9,451.3 908.4,446.2 941.9,446.2 975.4,441.6 1009.0,438.0 1042.5,438.0 1076.0,438.0" fill="none" stroke="#1D4ED8" stroke-width="5" display="none"><set attributeName="display" to="inline" begin="8.1s" dur="0.88s" /></polyline>

<text x="64" y="682" fill="#64748B" font-family="Segoe UI, Arial, sans-serif" font-size="14">Loop duration: 9.0s | Stochastic seed: 42</text>
</svg>
